<?xml version="1.0" encoding="utf-8"?>
<!-- Generator: Adobe Illustrator 16.0.0, SVG Export Plug-In . SVG Version: 6.00 Build 0)  -->
<!DOCTYPE svg PUBLIC "-//W3C//DTD SVG 1.1//EN" "http://www.w3.org/Graphics/SVG/1.1/DTD/svg11.dtd">
<svg version="1.1" id="Layer_1" xmlns="http://www.w3.org/2000/svg" xmlns:xlink="http://www.w3.org/1999/xlink" x="0px" y="0px"
	 width="64px" height="64px" viewBox="0 0 64 64" enable-background="new 0 0 64 64" xml:space="preserve">
<g>
	<g>
		<path fill-rule="evenodd" clip-rule="evenodd" fill="#F26739" d="M59.565,6.399H43.807V2.469c0-1.083-0.871-1.969-1.969-1.969
			s-1.969,0.886-1.969,1.969v3.931H24.117V2.469c0-1.083-0.886-1.969-1.969-1.969c-1.098,0-1.984,0.886-1.984,1.969v3.931H4.434
			c-2.179,0-3.938,1.758-3.938,3.938v49.224c0,2.165,1.759,3.938,3.938,3.938h55.131c2.165,0,3.938-1.773,3.938-3.938V10.337
			C63.504,8.158,61.73,6.399,59.565,6.399z M59.565,59.562H4.434V10.337h15.73v1.976c0,1.083,0.886,1.969,1.984,1.969
			c1.083,0,1.969-0.886,1.969-1.969v-1.976h15.752v1.976c0,1.083,0.871,1.969,1.969,1.969s1.969-0.886,1.969-1.969v-1.976h15.759
			V59.562z M45.783,31.996h3.938c1.098,0,1.969-0.886,1.969-1.969v-3.938c0-1.098-0.871-1.969-1.969-1.969h-3.938
			c-1.098,0-1.97,0.872-1.97,1.969v3.938C43.813,31.11,44.686,31.996,45.783,31.996z M45.783,47.748h3.938
			c1.098,0,1.969-0.871,1.969-1.969v-3.938c0-1.098-0.871-1.969-1.969-1.969h-3.938c-1.098,0-1.97,0.871-1.97,1.969v3.938
			C43.813,46.877,44.686,47.748,45.783,47.748z M33.969,39.872h-3.938c-1.083,0-1.969,0.871-1.969,1.969v3.938
			c0,1.098,0.886,1.969,1.969,1.969h3.938c1.097,0,1.969-0.871,1.969-1.969v-3.938C35.938,40.743,35.065,39.872,33.969,39.872z
			 M33.969,24.12h-3.938c-1.083,0-1.969,0.872-1.969,1.969v3.938c0,1.083,0.886,1.969,1.969,1.969h3.938
			c1.097,0,1.969-0.886,1.969-1.969v-3.938C35.938,24.992,35.065,24.12,33.969,24.12z M18.217,24.12h-3.938
			c-1.098,0-1.969,0.872-1.969,1.969v3.938c0,1.083,0.872,1.969,1.969,1.969h3.938c1.083,0,1.969-0.886,1.969-1.969v-3.938
			C20.186,24.992,19.3,24.12,18.217,24.12z M18.217,39.872h-3.938c-1.098,0-1.969,0.871-1.969,1.969v3.938
			c0,1.098,0.872,1.969,1.969,1.969h3.938c1.083,0,1.969-0.871,1.969-1.969v-3.938C20.186,40.743,19.3,39.872,18.217,39.872z"/>
	</g>
</g>
</svg>
