<?xml version="1.0" encoding="utf-8"?>
<!-- Generator: Adobe Illustrator 16.0.0, SVG Export Plug-In . SVG Version: 6.00 Build 0)  -->
<!DOCTYPE svg PUBLIC "-//W3C//DTD SVG 1.1//EN" "http://www.w3.org/Graphics/SVG/1.1/DTD/svg11.dtd">
<svg version="1.1" id="Layer_1" xmlns="http://www.w3.org/2000/svg" xmlns:xlink="http://www.w3.org/1999/xlink" x="0px" y="0px"
	 width="64px" height="64px" viewBox="0 0 64 64" enable-background="new 0 0 64 64" xml:space="preserve">
<g>
	<g>
		<path fill="#E3BDC2" d="M58.686,26.723l-4.883-1.076c-0.375-1.243-0.87-2.384-1.448-3.513l2.639-4.409
			c0.996-1.579,1.487-3.902,0-5.391l-2.695-2.707c-1.489-1.489-3.994-1.221-5.505-0.154l-4.289,2.716
			c-1.113-0.569-2.297-1.072-3.493-1.46l-1.108-4.946C37.582,3.966,35.994,2,33.889,2h-3.813c-2.113,0-3.396,1.996-3.813,3.813
			l-1.221,4.887c-1.285,0.416-2.533,0.949-3.721,1.574l-4.383-2.8c-1.518-1.067-4.046-1.335-5.534,0.154l-2.686,2.707
			c-1.488,1.489-0.984,3.813,0,5.391l2.774,4.646c-0.51,1.039-0.983,2.144-1.34,3.276l-4.887,1.076
			c-1.817,0.35-3.783,1.908-3.783,4.043v3.813c0,2.091,1.996,3.396,3.813,3.813l4.946,1.203c0.354,1.066,0.773,2.079,1.253,3.038
			l-2.776,4.646c-0.984,1.601-1.488,3.924,0,5.413l2.686,2.685c1.488,1.489,4.016,1.243,5.534,0.177l4.408-2.803
			c1.168,0.604,2.418,1.139,3.726,1.554l1.221,4.884C26.71,61.026,27.993,63,30.106,63h3.82c2.104,0,3.693-1.966,4.014-3.761
			l1.094-4.993c1.207-0.365,2.359-0.89,3.453-1.434l4.307,2.74c1.511,1.066,4.016,1.313,5.505-0.177l2.695-2.685
			c1.487-1.489,0.996-3.813,0-5.413l-2.639-4.41c0.535-1.021,0.996-2.143,1.369-3.274l4.946-1.203
			c1.832-0.417,3.813-1.722,3.813-3.813v-3.813C62.482,28.631,60.517,27.072,58.686,26.723z M58.67,34.288
			c-0.166,0.118-0.474,0.292-0.848,0.359l-7.075,1.781l-0.655,1.976c-0.297,0.939-0.676,1.839-1.134,2.736l-0.953,1.898l3.733,6.204
			c0.221,0.408,0.338,0.717,0.378,0.945l-2.503,2.503c-0.239-0.108-0.531-0.179-0.654-0.29l-6.275-3.994l-1.946,1.012
			c-0.949,0.479-1.906,0.894-2.861,1.194l-2.083,0.704l-1.584,7.091c-0.063,0.363-0.263,0.663-0.402,0.779h-3.433
			c-0.119-0.174-0.27-0.474-0.359-0.839l-1.756-7.026l-2.027-0.652c-1.043-0.306-2.108-0.772-3.122-1.309l-1.965-1.019l-6.26,3.993
			c-0.265,0.177-0.535,0.247-0.776,0.247l-2.501-2.396c0.031-0.229,0.123-0.533,0.332-0.884l3.902-6.495l-0.924-1.852
			c-0.444-0.89-0.775-1.722-1.043-2.552l-0.655-1.977l-7-1.777c-0.445-0.069-0.749-0.244-0.923-0.363v-3.522c0,0,0.001,0,0.002,0
			c0.061,0,0.385-0.234,0.651-0.29l7.181-1.604l0.657-2.089c0.268-0.84,0.65-1.733,1.129-2.737l0.924-1.853l-3.869-6.433
			c-0.238-0.386-0.333-0.717-0.363-0.923l2.503-2.503c0.239,0.064,0.508,0.178,0.653,0.268l6.379,4.08l1.964-1.041
			c1.011-0.534,2.052-0.979,3.096-1.308l2.025-0.631l1.731-6.966c0.114-0.445,0.266-0.748,0.385-0.923h3.544
			c-0.021,0.032,0.219,0.361,0.275,0.653l1.592,7.214l2.068,0.682c0.988,0.324,1.962,0.717,2.915,1.221l1.962,1.013l6.138-3.905
			c0.243-0.178,0.535-0.292,0.776-0.292l2.501,2.439c-0.04,0.206-0.137,0.533-0.354,0.863l-3.758,6.28l0.955,1.883
			c0.518,1.013,0.914,1.966,1.196,2.917l0.671,2.091l7.055,1.597c0.428,0.064,0.742,0.305,0.805,0.428L58.67,34.288z M32.011,21.058
			c-6.34,0-11.493,5.127-11.493,11.442c0,6.314,5.153,11.442,11.493,11.442c6.325,0,11.471-5.128,11.471-11.442
			C43.482,26.185,38.336,21.058,32.011,21.058z M31.982,40.125c-4.202,0-7.625-3.402-7.625-7.625s3.423-7.625,7.625-7.625
			c4.207,0,7.625,3.402,7.625,7.625S36.189,40.125,31.982,40.125z"/>
	</g>
</g>
</svg>
