<?xml version="1.0" encoding="utf-8"?>
<!-- Generator: Adobe Illustrator 16.0.0, SVG Export Plug-In . SVG Version: 6.00 Build 0)  -->
<!DOCTYPE svg PUBLIC "-//W3C//DTD SVG 1.1//EN" "http://www.w3.org/Graphics/SVG/1.1/DTD/svg11.dtd">
<svg version="1.1" id="Layer_1" xmlns="http://www.w3.org/2000/svg" xmlns:xlink="http://www.w3.org/1999/xlink" x="0px" y="0px"
	 width="28px" height="64px" viewBox="0 0 28 64" style="enable-background:new 0 0 28 64;" xml:space="preserve">
<style type="text/css">
<![CDATA[
	.st0{fill-rule:evenodd;clip-rule:evenodd;fill:#FDBA33;}
]]>
</style>
<g>
	<g>
		<path class="st0" d="M27,13.5c0-7.2-5.8-13-13-13c-7.2,0-13,5.8-13,13C1,20,5.7,25.3,11.8,26.4v37.1h4.3v-2.2h6.5V57h-4.3v-4.4
			h4.3v-4.3h-6.5V26.4C22.3,25.3,27,20,27,13.5z M14,22.2c-4.8,0-8.7-3.9-8.7-8.7S9.2,4.8,14,4.8c4.8,0,8.7,3.9,8.7,8.7
			S18.8,22.2,14,22.2z"/>
	</g>
</g>
</svg>
