<?xml version="1.0" encoding="utf-8"?>
<!-- Generator: Adobe Illustrator 16.0.0, SVG Export Plug-In . SVG Version: 6.00 Build 0)  -->
<!DOCTYPE svg PUBLIC "-//W3C//DTD SVG 1.1//EN" "http://www.w3.org/Graphics/SVG/1.1/DTD/svg11.dtd">
<svg version="1.1" id="Layer_1" xmlns="http://www.w3.org/2000/svg" xmlns:xlink="http://www.w3.org/1999/xlink" x="0px" y="0px"
	 width="64px" height="64px" viewBox="0 0 64 64" enable-background="new 0 0 64 64" xml:space="preserve">
<g>
	<g>
		<path fill="#E3BDC2" d="M59.146,4.11c-2.098-2.002-4.434-3.03-6.915-3.03c-3.877,0-6.72,2.512-7.475,3.271
			C43.667,5.438,6.463,42.659,6.463,42.659c-0.242,0.244-0.423,0.548-0.514,0.865C5.104,46.613,0.921,60.36,0.863,60.533
			c-0.212,0.675-0.028,1.457,0.512,1.997c0.365,0.363,0.853,0.55,1.366,0.55c0.209,0,0.396-0.056,0.605-0.067
			c0.148-0.058,14.347-4.657,16.679-5.376c0.305-0.069,0.579-0.246,0.817-0.484c1.482-1.455,36.17-35.757,38.471-38.122
			c2.376-2.453,3.553-4.997,3.514-7.598C62.779,8.887,61.554,6.411,59.146,4.11z M44.133,10.555c0.99,0.236,3.312,1.025,5.677,3.418
			c2.417,2.421,3.053,5.213,3.179,5.814c-7.606,7.564-25.11,24.888-32.026,31.711c-0.639-1.488-1.669-3.275-3.327-4.945
			c-2.021-2.036-4.076-3.184-5.662-3.83C18.796,35.887,36.635,18.042,44.133,10.555z M9.343,45.988
			c1.069,0.288,3.269,1.096,5.508,3.354c1.736,1.769,2.559,3.689,2.929,4.865c-2.676,0.882-8.565,2.916-12.318,4.094
			C6.557,54.646,8.431,48.979,9.343,45.988z M56.505,16.274c-0.079,0.081-0.21,0.213-0.366,0.371
			c-0.612-1.58-1.688-3.61-3.545-5.483c-1.887-1.916-3.807-3.044-5.35-3.71c0.126-0.125,0.224-0.222,0.263-0.259
			c0.219-0.238,2.219-2.147,4.725-2.147c1.451,0,2.858,0.64,4.213,1.941c1.6,1.542,2.424,3.057,2.448,4.51
			C58.928,13.004,58.117,14.583,56.505,16.274z"/>
	</g>
</g>
</svg>
