<?xml version="1.0" encoding="utf-8"?>
<!-- Generator: Adobe Illustrator 16.0.0, SVG Export Plug-In . SVG Version: 6.00 Build 0)  -->
<!DOCTYPE svg PUBLIC "-//W3C//DTD SVG 1.1//EN" "http://www.w3.org/Graphics/SVG/1.1/DTD/svg11.dtd">
<svg version="1.1" id="Layer_1" xmlns="http://www.w3.org/2000/svg" xmlns:xlink="http://www.w3.org/1999/xlink" x="0px" y="0px"
	 width="64px" height="64px" viewBox="0 0 64 64" enable-background="new 0 0 64 64" xml:space="preserve">
<path fill="#FFFFFF" d="M31.99,2c-1.729,0-3.31,0.97-4.044,2.516L20.943,19.05L4.829,21.451c-1.667,0.238-3.042,1.377-3.572,2.928
	c-0.529,1.531-0.12,3.254,1.029,4.423l11.809,11.794l-2.73,16.359c-0.289,1.643,0.438,3.286,1.843,4.274
	c0.763,0.527,1.669,0.77,2.577,0.77c0.737,0,1.472-0.177,2.146-0.53l14.059-7.561l14.059,7.561C46.705,61.823,47.46,62,48.216,62
	c0.886,0,1.813-0.242,2.579-0.77c1.402-0.988,2.108-2.632,1.819-4.274l-2.75-16.359l11.83-11.794
	c1.172-1.169,1.578-2.892,1.051-4.423c-0.571-1.551-1.928-2.69-3.572-2.928L43.06,19.05L36.034,4.516C35.295,2.97,33.72,2,31.99,2
	L31.99,2z"/>
</svg>
